<svg xmlns="http://www.w3.org/2000/svg" viewBox="0 0 1280 720" role="img" aria-labelledby="title desc">
  <title id="title">Cute flat style sample</title>
  <desc id="desc">A cute flat style clicker game screen mockup with tiger mascot and factory cards.</desc>
  <defs>
    <linearGradient id="bg" x1="0" y1="0" x2="1" y2="1">
      <stop offset="0%" stop-color="#fff8ea"/>
      <stop offset="100%" stop-color="#ffd9ad"/>
    </linearGradient>
    <linearGradient id="cta" x1="0" y1="0" x2="0" y2="1">
      <stop offset="0%" stop-color="#f18042"/>
      <stop offset="100%" stop-color="#d85d2a"/>
    </linearGradient>
    <filter id="softShadow" x="-20%" y="-20%" width="140%" height="140%">
      <feDropShadow dx="0" dy="10" stdDeviation="10" flood-opacity="0.2"/>
    </filter>
  </defs>

  <rect width="1280" height="720" fill="url(#bg)"/>
  <circle cx="80" cy="100" r="90" fill="#ffd7af" opacity="0.6"/>
  <circle cx="1180" cy="140" r="120" fill="#ffc894" opacity="0.6"/>
  <circle cx="640" cy="700" r="170" fill="#ffe6c7" opacity="0.7"/>

  <g filter="url(#softShadow)">
    <rect x="48" y="36" width="1184" height="86" rx="24" fill="#fff6ea" stroke="#e9c79f" stroke-width="3"/>
    <text x="80" y="74" font-size="22" fill="#8a684b" font-family="Trebuchet MS, Segoe UI, sans-serif">TIGER TTEOK FACTORY</text>
    <text x="80" y="104" font-size="42" fill="#3f2a1c" font-weight="700" font-family="Trebuchet MS, Segoe UI, sans-serif">Tiger Rice-Cake Clicker</text>
    <rect x="1020" y="54" width="184" height="50" rx="16" fill="#fff0db"/>
    <text x="1112" y="86" text-anchor="middle" font-size="30" fill="#d4582f" font-weight="700" font-family="Trebuchet MS, Segoe UI, sans-serif">112 nyang</text>
  </g>

  <g filter="url(#softShadow)">
    <rect x="48" y="148" width="360" height="428" rx="26" fill="#fff8ef" stroke="#e5bf91" stroke-width="3"/>
    <text x="76" y="194" font-size="38" fill="#3e2a1b" font-weight="700" font-family="Trebuchet MS, Segoe UI, sans-serif">Knead</text>
    <rect x="74" y="220" width="306" height="82" rx="28" fill="url(#cta)" stroke="#2f2117" stroke-width="3"/>
    <text x="227" y="272" text-anchor="middle" font-size="36" fill="#fff" font-weight="700" font-family="Trebuchet MS, Segoe UI, sans-serif">Tap Dough</text>

    <rect x="74" y="330" width="306" height="210" rx="20" fill="#fff0dd" stroke="#e5bf91" stroke-width="2"/>
    <text x="94" y="370" font-size="30" fill="#7a583f" font-family="Trebuchet MS, Segoe UI, sans-serif">Sell Queue</text>
    <text x="94" y="422" font-size="56" fill="#3b281b" font-weight="700" font-family="Trebuchet MS, Segoe UI, sans-serif">40</text>
    <rect x="94" y="446" width="266" height="68" rx="20" fill="#de7b44"/>
    <text x="227" y="490" text-anchor="middle" font-size="34" fill="#fff" font-weight="700" font-family="Trebuchet MS, Segoe UI, sans-serif">Flush Sale</text>
  </g>

  <g filter="url(#softShadow)">
    <rect x="432" y="148" width="470" height="428" rx="26" fill="#fff8ef" stroke="#e5bf91" stroke-width="3"/>
    <text x="460" y="194" font-size="38" fill="#3e2a1b" font-weight="700" font-family="Trebuchet MS, Segoe UI, sans-serif">Pipeline</text>

    <rect x="460" y="220" width="198" height="154" rx="18" fill="#fff2e2" stroke="#e5bf91" stroke-width="2"/>
    <text x="480" y="262" font-size="32" fill="#4a321f" font-family="Trebuchet MS, Segoe UI, sans-serif">Dough</text>
    <text x="480" y="316" font-size="50" fill="#4a321f" font-weight="700" font-family="Trebuchet MS, Segoe UI, sans-serif">175</text>

    <rect x="676" y="220" width="198" height="154" rx="18" fill="#fff2e2" stroke="#e5bf91" stroke-width="2"/>
    <text x="696" y="262" font-size="32" fill="#4a321f" font-family="Trebuchet MS, Segoe UI, sans-serif">Steam</text>
    <text x="696" y="316" font-size="50" fill="#4a321f" font-weight="700" font-family="Trebuchet MS, Segoe UI, sans-serif">16</text>

    <rect x="460" y="392" width="198" height="154" rx="18" fill="#fff2e2" stroke="#e5bf91" stroke-width="2"/>
    <text x="480" y="434" font-size="32" fill="#4a321f" font-family="Trebuchet MS, Segoe UI, sans-serif">Pack</text>
    <text x="480" y="488" font-size="50" fill="#4a321f" font-weight="700" font-family="Trebuchet MS, Segoe UI, sans-serif">24</text>

    <rect x="676" y="392" width="198" height="154" rx="18" fill="#fff2e2" stroke="#e5bf91" stroke-width="2"/>
    <text x="696" y="434" font-size="32" fill="#4a321f" font-family="Trebuchet MS, Segoe UI, sans-serif">Ship</text>
    <text x="696" y="488" font-size="50" fill="#4a321f" font-weight="700" font-family="Trebuchet MS, Segoe UI, sans-serif">40</text>
  </g>

  <g filter="url(#softShadow)">
    <rect x="926" y="148" width="306" height="428" rx="26" fill="#fff8ef" stroke="#e5bf91" stroke-width="3"/>
    <text x="954" y="194" font-size="38" fill="#3e2a1b" font-weight="700" font-family="Trebuchet MS, Segoe UI, sans-serif">Upgrades</text>
    <rect x="954" y="230" width="250" height="58" rx="18" fill="#e6c7a6"/>
    <rect x="954" y="304" width="250" height="58" rx="18" fill="#e6c7a6"/>
    <rect x="954" y="378" width="250" height="58" rx="18" fill="#e6c7a6"/>
    <rect x="954" y="452" width="250" height="58" rx="18" fill="#c8d2a7"/>
  </g>

  <g transform="translate(1038 560)">
    <ellipse cx="70" cy="82" rx="86" ry="32" fill="#d6a677" opacity="0.35"/>
    <circle cx="70" cy="46" r="42" fill="#f1893f"/>
    <ellipse cx="52" cy="32" rx="12" ry="14" fill="#f1893f"/>
    <ellipse cx="88" cy="32" rx="12" ry="14" fill="#f1893f"/>
    <circle cx="70" cy="53" r="24" fill="#fff4e7"/>
    <circle cx="60" cy="48" r="4" fill="#2b2017"/>
    <circle cx="80" cy="48" r="4" fill="#2b2017"/>
    <path d="M70 54 L64 62 H76 Z" fill="#2b2017"/>
    <circle cx="48" cy="58" r="5" fill="#ffb28f"/>
    <circle cx="92" cy="58" r="5" fill="#ffb28f"/>
  </g>
</svg>
